<svg width="24" height="24" viewBox="0 0 24 24" fill="none" xmlns="http://www.w3.org/2000/svg">
<g clip-path="url(#clip0)">
<path d="M19.2 2.81818H18.3V1L16.5 1V2.81818L7.5 2.81818V1L5.7 1V2.81818H4.8C3.81 2.81818 3 3.63636 3 4.63636L3 19.1818C3 20.1818 3.81 21 4.8 21L19.2 21C20.19 21 21 20.1818 21 19.1818L21 4.63636C21 3.63636 20.19 2.81818 19.2 2.81818ZM19.2 18.1818C19.2 18.7341 18.7523 19.1818 18.2 19.1818L5.8 19.1818C5.24772 19.1818 4.8 18.7341 4.8 18.1818L4.8 8.36364C4.8 7.81135 5.24772 7.36364 5.8 7.36364L18.2 7.36364C18.7523 7.36364 19.2 7.81135 19.2 8.36364L19.2 18.1818Z" fill="#AFAFAF"/>
</g>
<defs>
<clipPath id="clip0">
<path d="M0 12C0 5.37258 5.37258 0 12 0C18.6274 0 24 5.37258 24 12C24 18.6274 18.6274 24 12 24C5.37258 24 0 18.6274 0 12Z" fill="white"/>
</clipPath>
</defs>
</svg>
