<svg width="32" height="32" viewBox="0 0 32 32" fill="none" xmlns="http://www.w3.org/2000/svg">
<path d="M18.6332 8.54379L6.30839 20.8824C6.24638 20.9447 6.20161 21.0233 6.18029 21.1078L4.8142 26.5967C4.77334 26.7619 4.82184 26.9376 4.9423 27.0582C5.03344 27.1495 5.15763 27.2 5.28467 27.2C5.32358 27.2 5.36337 27.1952 5.40211 27.1854L10.8853 25.8177C10.9708 25.7964 11.0484 25.7517 11.1104 25.6896L23.4363 13.3519L18.6332 8.54379Z" fill="#132339"/>
<path d="M26.4897 6.86147L25.1177 5.48808C24.2008 4.57018 22.6027 4.57107 21.6868 5.48808L20.0062 7.1704L24.8091 11.9783L26.4897 10.296C26.9477 9.83768 27.2 9.22764 27.2 8.57883C27.2 7.93002 26.9477 7.31998 26.4897 6.86147Z" fill="#132339"/>
</svg>
