<svg width="28" height="28" viewBox="0 0 28 28" fill="none" xmlns="http://www.w3.org/2000/svg">
<path fill-rule="evenodd" clip-rule="evenodd" d="M12.5 6.5C12.7761 6.5 13 6.72386 13 7V8.33333H12V7C12 6.72386 12.2239 6.5 12.5 6.5ZM12 11V9.66667H13V11C13 11.3142 13.0413 11.6179 13.1184 11.9065L12.1523 12.1648C12.0529 11.7927 12 11.4021 12 11ZM19.5 12.1132L24.5 15L19.5 17.8868V15.5H18.2778V14.5H19.5V12.1132ZM14.2493 14.8975C13.5666 14.5025 12.9975 13.9334 12.6025 13.2507L13.4681 12.7499C13.7755 13.2812 14.2188 13.7245 14.7501 14.0319L14.2493 14.8975ZM16.5 15.5C16.0979 15.5 15.7073 15.4471 15.3352 15.3477L15.5935 14.3816C15.8821 14.4587 16.1858 14.5 16.5 14.5H17.3889V15.5H16.5Z" fill="#C8CAE2"/>
</svg>
