<svg width="20" height="20" viewBox="0 0 20 20" fill="none" xmlns="http://www.w3.org/2000/svg">
<path fill-rule="evenodd" clip-rule="evenodd" d="M14 2.00001H6.00002C3.79088 2.00001 2.00002 3.79087 2.00002 6V14C2.00002 16.2091 3.79088 18 6.00002 18H14C16.2092 18 18 16.2091 18 14V6.00001C18 3.79087 16.2092 2.00001 14 2.00001ZM6.00002 0.666672C3.0545 0.666672 0.666687 3.05449 0.666687 6V14C0.666687 16.9455 3.0545 19.3333 6.00002 19.3333H14C16.9455 19.3333 19.3334 16.9455 19.3334 14V6.00001C19.3334 3.05449 16.9455 0.666672 14 0.666672H6.00002Z" fill="#444444"/>
</svg>
